<svg width="16" height="16" viewBox="0 0 16 16" fill="none" xmlns="http://www.w3.org/2000/svg">
    <path d="M10.9918 7.79901C10.9918 6.33049 9.80135 5.14001 8.33283 5.14001C6.8643 5.14001 5.67383 6.33049 5.67383 7.79901C5.67383 9.26754 6.8643 10.458 8.33283 10.458C9.80135 10.458 10.9918 9.26754 10.9918 7.79901Z"/>
    <path d="M0.725003 6.52602C0.629626 6.52602 0.535186 6.50721 0.447095 6.47065C0.359003 6.43409 0.278991 6.3805 0.211642 6.31297C0.144293 6.24543 0.0909319 6.16528 0.054615 6.07708C0.0182982 5.98889 -0.00026035 5.8944 2.75887e-06 5.79902V3.62502C2.75887e-06 2.65602 2.75887e-06 -0.000976562 2.75887e-06 -0.000976562C2.75887e-06 -0.000976562 2.593 -0.000976562 3.626 -0.000976562H5.8C5.99228 -0.000976562 6.17669 0.0754072 6.31266 0.211371C6.44862 0.347335 6.525 0.531741 6.525 0.724023C6.525 0.916305 6.44862 1.10071 6.31266 1.23668C6.17669 1.37264 5.99228 1.44902 5.8 1.44902H1.45C1.45 1.44902 1.45 2.96202 1.45 3.62502V5.79902C1.45027 5.8944 1.43171 5.98889 1.39539 6.07708C1.35907 6.16528 1.30571 6.24543 1.23836 6.31297C1.17101 6.3805 1.091 6.43409 1.00291 6.47065C0.914819 6.50721 0.82038 6.52602 0.725003 6.52602ZM15.955 5.79902V3.62502C15.955 2.63802 15.955 -0.000976562 15.955 -0.000976562C15.955 -0.000976562 13.344 -0.000976562 12.329 -0.000976562H10.153C9.96072 -0.00097656 9.77631 0.0754072 9.64035 0.211371C9.50439 0.347335 9.428 0.531741 9.428 0.724023C9.428 0.916305 9.50439 1.10071 9.64035 1.23668C9.77631 1.37264 9.96072 1.44902 10.153 1.44902H14.5C14.5 1.44902 14.5 2.98102 14.5 3.62502V5.79902C14.5 5.99131 14.5764 6.17571 14.7124 6.31168C14.8483 6.44764 15.0327 6.52402 15.225 6.52402C15.4173 6.52402 15.6017 6.44764 15.7377 6.31168C15.8736 6.17571 15.95 5.99131 15.95 5.79902H15.955ZM15.955 12.326V10.152C15.955 9.95974 15.8786 9.77533 15.7427 9.63937C15.6067 9.50341 15.4223 9.42702 15.23 9.42702C15.0377 9.42702 14.8533 9.50341 14.7174 9.63937C14.5814 9.77533 14.505 9.95974 14.505 10.152V12.328C14.505 12.841 14.505 14.504 14.505 14.504H10.153C9.96072 14.504 9.77631 14.5804 9.64035 14.7164C9.50439 14.8523 9.428 15.0367 9.428 15.229C9.428 15.4213 9.50439 15.6057 9.64035 15.7417C9.77631 15.8776 9.96072 15.954 10.153 15.954H12.329C13.22 15.954 15.955 15.846 15.955 15.846C15.955 15.846 15.955 13.439 15.955 12.328V12.326ZM6.527 15.226C6.52727 15.1305 6.50864 15.0358 6.4722 14.9475C6.43576 14.8592 6.38222 14.7789 6.31466 14.7114C6.2471 14.6438 6.16685 14.5903 6.07853 14.5538C5.9902 14.5174 5.89555 14.4988 5.8 14.499H1.45C1.45 14.499 1.45 12.954 1.45 12.323V10.152C1.45 9.95974 1.37362 9.77533 1.23766 9.63937C1.10169 9.50341 0.917285 9.42702 0.725003 9.42702C0.532721 9.42702 0.348314 9.50341 0.21235 9.63937C0.0763865 9.77533 2.75887e-06 9.95974 2.75887e-06 10.152V12.328C2.75887e-06 13.203 2.75887e-06 15.954 2.75887e-06 15.954C2.75887e-06 15.954 2.5 15.954 3.626 15.954H5.8C5.89538 15.9543 5.98987 15.9357 6.07806 15.8994C6.16625 15.8631 6.24641 15.8097 6.31395 15.7424C6.38148 15.675 6.43507 15.595 6.47162 15.5069C6.50818 15.4188 6.527 15.3244 6.527 15.229V15.226ZM11.6 7.97702C11.6008 7.25953 11.3887 6.55793 10.9906 5.96102C10.5925 5.36412 10.0262 4.89874 9.36346 4.6238C8.70073 4.34887 7.97134 4.27672 7.26759 4.4165C6.56384 4.55629 5.91738 4.90171 5.41004 5.40906C4.90269 5.9164 4.55727 6.56286 4.41748 7.26661C4.2777 7.97036 4.34984 8.69975 4.62478 9.36248C4.89972 10.0252 5.3651 10.5915 5.962 10.9896C6.55891 11.3877 7.26051 11.5998 7.978 11.599C8.93829 11.598 9.85895 11.216 10.538 10.537C11.217 9.85797 11.5989 8.93731 11.6 7.97702ZM10.15 7.97702C10.1496 8.40748 10.0215 8.82815 9.78203 9.18581C9.54251 9.54348 9.20229 9.82207 8.80441 9.98634C8.40653 10.1506 7.96887 10.1932 7.54679 10.1087C7.12471 10.0242 6.73718 9.81636 6.43322 9.51156C6.12926 9.20676 5.92253 8.81866 5.83918 8.39635C5.75584 7.97404 5.79962 7.53649 5.96498 7.13907C6.13035 6.74164 6.40988 6.40219 6.7682 6.16366C7.12653 5.92513 7.54755 5.79823 7.978 5.79902C8.26384 5.79915 8.54686 5.8556 8.81088 5.96514C9.0749 6.07468 9.31475 6.23516 9.51673 6.43742C9.71871 6.63968 9.87886 6.87975 9.98803 7.14392C10.0972 7.40809 10.1533 7.69118 10.153 7.97702H10.15Z"
          fill="#F5F7FD"/>
</svg>
