<svg width="14" height="16" viewBox="0 0 14 16" fill="none" xmlns="http://www.w3.org/2000/svg">
    <path d="M1.36961 15.5691C1.27147 15.5692 1.17428 15.55 1.08359 15.5125C0.9929 15.475 0.910499 15.42 0.841107 15.3506C0.771715 15.2812 0.716697 15.1988 0.679203 15.1081C0.64171 15.0174 0.622478 14.9202 0.622609 14.8221C0.615644 14.7222 0.63019 14.622 0.665266 14.5282C0.700343 14.4344 0.755133 14.3493 0.825939 14.2784C0.896744 14.2076 0.981916 14.1528 1.07571 14.1178C1.16949 14.0827 1.26972 14.0682 1.36961 14.0751H12.8576C12.9597 14.0732 13.0612 14.0922 13.1557 14.1309C13.2502 14.1697 13.3358 14.2274 13.4072 14.3004C13.4787 14.3735 13.5344 14.4604 13.571 14.5557C13.6075 14.6511 13.6242 14.753 13.62 14.855C13.6158 14.9571 13.5907 15.0572 13.5463 15.1493C13.502 15.2413 13.4392 15.3232 13.362 15.3901C13.2848 15.457 13.1947 15.5074 13.0973 15.5382C12.9999 15.569 12.8972 15.5795 12.7956 15.5691H1.36961ZM1.21361 8.41012C1.2916 8.10113 1.44718 7.81716 1.66561 7.58512L8.45261 0.782116C8.97615 0.280215 9.67335 0 10.3986 0C11.1239 0 11.8211 0.280215 12.3446 0.782116L12.9206 1.38912C13.4224 1.9095 13.7028 2.60422 13.7028 3.32712C13.7028 4.05001 13.4224 4.74474 12.9206 5.26512L6.13261 12.0521C5.88309 12.2452 5.60467 12.3978 5.30761 12.5041L0.599609 13.0161L1.21361 8.41012ZM9.49961 1.90012L2.71261 8.70012L2.15261 11.5641L5.03261 11.0821L11.8036 4.28212C11.9285 4.16888 12.0284 4.03074 12.0967 3.8766C12.165 3.72246 12.2003 3.55572 12.2003 3.38712C12.2003 3.21851 12.165 3.05177 12.0967 2.89763C12.0284 2.74349 11.9285 2.60536 11.8036 2.49212L11.2076 1.90012C11.0957 1.78981 10.9628 1.703 10.8168 1.64478C10.6709 1.58657 10.5147 1.55812 10.3576 1.56112C10.0382 1.55735 9.73015 1.67908 9.49961 1.90012Z"
          fill="#F5F7FD"/>
</svg>
